<svg width="32" height="32" viewBox="0 0 32 32" fill="none" xmlns="http://www.w3.org/2000/svg">
<path d="M17 5.5C17 5.10218 16.842 4.72064 16.5607 4.43934C16.2794 4.15804 15.8978 4 15.5 4C15.1022 4 14.7206 4.15804 14.4393 4.43934C14.158 4.72064 14 5.10218 14 5.5V14H5.5C5.10218 14 4.72064 14.158 4.43934 14.4393C4.15804 14.7206 4 15.1022 4 15.5C4 15.8978 4.15804 16.2794 4.43934 16.5607C4.72064 16.842 5.10218 17 5.5 17H14V25.5C14 25.8978 14.158 26.2794 14.4393 26.5607C14.7206 26.842 15.1022 27 15.5 27C15.8978 27 16.2794 26.842 16.5607 26.5607C16.842 26.2794 17 25.8978 17 25.5V17H25.5C25.8978 17 26.2794 16.842 26.5607 16.5607C26.842 16.2794 27 15.8978 27 15.5C27 15.1022 26.842 14.7206 26.5607 14.4393C26.2794 14.158 25.8978 14 25.5 14H17V5.5Z" fill="black"/>
</svg>
