<svg width="75" height="75" viewBox="0 0 75 75" fill="none" xmlns="http://www.w3.org/2000/svg">
<path d="M59.375 20.3126H55.375L54.375 17.1876C53.7267 15.3539 52.5242 13.7673 50.9341 12.6474C49.3439 11.5276 47.4449 10.9301 45.5 10.9376H29.5C27.5361 10.9412 25.6229 11.5616 24.0305 12.711C22.4381 13.8605 21.2469 15.481 20.625 17.3438L19.625 20.4688H15.625C13.1386 20.4688 10.754 21.4565 8.99587 23.2147C7.23772 24.9728 6.25 27.3574 6.25 29.8438V54.8438C6.25 57.3302 7.23772 59.7148 8.99587 61.4729C10.754 63.2311 13.1386 64.2188 15.625 64.2188H59.375C61.8614 64.2188 64.246 63.2311 66.0041 61.4729C67.7623 59.7148 68.75 57.3302 68.75 54.8438V29.8438C68.7707 28.5996 68.5436 27.3637 68.0817 26.2082C67.6199 25.0526 66.9326 24.0006 66.06 23.1135C65.1874 22.2263 64.1469 21.5217 62.9991 21.0408C61.8514 20.56 60.6194 20.3124 59.375 20.3126ZM62.5 54.6876C62.5 55.5164 62.1708 56.3112 61.5847 56.8973C60.9987 57.4833 60.2038 57.8126 59.375 57.8126H15.625C14.7962 57.8126 14.0013 57.4833 13.4153 56.8973C12.8292 56.3112 12.5 55.5164 12.5 54.6876V29.6876C12.5 28.8588 12.8292 28.0639 13.4153 27.4779C14.0013 26.8918 14.7962 26.5626 15.625 26.5626H21.875C22.5565 26.5981 23.2308 26.4097 23.7951 26.026C24.3594 25.6423 24.7826 25.0844 25 24.4376L26.6875 19.3126C26.8971 18.6919 27.2966 18.1528 27.8293 17.7715C28.362 17.3901 29.0011 17.1859 29.6562 17.1876H45.6562C46.3114 17.1859 46.9505 17.3901 47.4832 17.7715C48.0159 18.1528 48.4154 18.6919 48.625 19.3126L50.3125 24.4376C50.513 25.0336 50.8887 25.5554 51.3905 25.9345C51.8923 26.3136 52.4968 26.5325 53.125 26.5626H59.375C60.2038 26.5626 60.9987 26.8918 61.5847 27.4779C62.1708 28.0639 62.5 28.8588 62.5 29.6876V54.6876ZM37.5 26.5626C35.0277 26.5626 32.611 27.2957 30.5554 28.6692C28.4998 30.0427 26.8976 31.9949 25.9515 34.279C25.0054 36.5631 24.7579 39.0764 25.2402 41.5012C25.7225 43.926 26.913 46.1532 28.6612 47.9014C30.4093 49.6496 32.6366 50.8401 35.0614 51.3224C37.4861 51.8047 39.9995 51.5572 42.2835 50.6111C44.5676 49.665 46.5199 48.0628 47.8934 46.0072C49.2669 43.9516 50 41.5348 50 39.0626C50 35.7474 48.683 32.5679 46.3388 30.2237C43.9946 27.8795 40.8152 26.5626 37.5 26.5626ZM37.5 45.3126C36.2639 45.3126 35.0555 44.946 34.0277 44.2593C32.9999 43.5725 32.1988 42.5964 31.7258 41.4543C31.2527 40.3123 31.1289 39.0556 31.3701 37.8433C31.6112 36.6309 32.2065 35.5172 33.0806 34.6432C33.9547 33.7691 35.0683 33.1738 36.2807 32.9327C37.4931 32.6915 38.7497 32.8153 39.8918 33.2883C41.0338 33.7614 42.0099 34.5624 42.6967 35.5903C43.3834 36.6181 43.75 37.8264 43.75 39.0626C43.75 40.7202 43.0915 42.3099 41.9194 43.482C40.7473 44.6541 39.1576 45.3126 37.5 45.3126Z" fill="white"/>
</svg>
