<svg width="123" height="123" viewBox="0 0 123 123" fill="none" xmlns="http://www.w3.org/2000/svg">
<path d="M98.7844 35.7469L71.8781 8.84062C71.1094 8.07187 70.3406 7.6875 69.1875 7.6875H30.75C26.5219 7.6875 23.0625 11.1469 23.0625 15.375V107.625C23.0625 111.853 26.5219 115.312 30.75 115.312H92.25C96.4781 115.312 99.9375 111.853 99.9375 107.625V38.4375C99.9375 37.2844 99.5531 36.5156 98.7844 35.7469ZM69.1875 16.9125L90.7125 38.4375H69.1875V16.9125ZM92.25 107.625H30.75V15.375H61.5V38.4375C61.5 42.6656 64.9594 46.125 69.1875 46.125H92.25V107.625Z" fill="white"/>
<path d="M38.4375 84.5625H84.5625V92.25H38.4375V84.5625ZM38.4375 61.5H84.5625V69.1875H38.4375V61.5Z" fill="white"/>
</svg>
