<svg width="15" height="15" viewBox="0 0 15 15" fill="none" xmlns="http://www.w3.org/2000/svg">
<path d="M9.6875 8.75H9.19375L9.01875 8.58125C9.65242 7.84627 10.0007 6.90794 10 5.9375C10 5.13402 9.76174 4.34857 9.31535 3.6805C8.86895 3.01242 8.23448 2.49172 7.49215 2.18424C6.74983 1.87676 5.93299 1.79631 5.14495 1.95306C4.3569 2.10981 3.63303 2.49673 3.06488 3.06488C2.49673 3.63303 2.10981 4.3569 1.95306 5.14495C1.79631 5.93299 1.87676 6.74983 2.18424 7.49215C2.49172 8.23448 3.01242 8.86895 3.6805 9.31535C4.34857 9.76174 5.13402 10 5.9375 10C6.94375 10 7.86875 9.63125 8.58125 9.01875L8.75 9.19375V9.6875L11.875 12.8063L12.8063 11.875L9.6875 8.75ZM5.9375 8.75C4.38125 8.75 3.125 7.49375 3.125 5.9375C3.125 4.38125 4.38125 3.125 5.9375 3.125C7.49375 3.125 8.75 4.38125 8.75 5.9375C8.75 7.49375 7.49375 8.75 5.9375 8.75Z" fill="white" fill-opacity="0.5"/>
</svg>
